<svg xmlns="http://www.w3.org/2000/svg" viewBox="0 0 172 172"><g fill="none" stroke-miterlimit="10" stroke-width="none" font-family="none" font-size="none" font-weight="none" style="mix-blend-mode:normal" text-anchor="none"><path d="M0 172V0h172v172z"/><path fill="#000" d="M80.625 10.75c-38.50683 0-69.875 31.36817-69.875 69.875S42.11817 150.5 80.625 150.5 150.5 119.13183 150.5 80.625 119.13183 10.75 80.625 10.75zm0 10.75c32.71192 0 59.125 26.41308 59.125 59.125s-26.41308 59.125-59.125 59.125S21.5 113.33692 21.5 80.625 47.91308 21.5 80.625 21.5z"/><path fill="#000" d="m104.6 115.745-7.39-20.22H64.74l-7.29 20.22H46.91l29.59-77.49h8.94l29.65 77.49zm-23.63-64.88-13.14 36.25h26.34z"/></g></svg>