<svg xmlns="http://www.w3.org/2000/svg" width="30" height="30" fill="#fff" viewBox="0 0 30 30"><path d="M19.587891 3.0097656c-2.072438-.0819375-4.171407.6675-5.753907 2.25-1.974944 1.9749444-2.232397 4.3385622-1.332031 6.5820314l-8.330078 8.330078c-1.562 1.562-1.562 4.09425 0 5.65625 1.562 1.562 4.09425 1.562 5.65625 0l8.330078-8.330078c2.243469.900366 4.607087.642913 6.582031-1.332031 2.11-2.11 2.736625-5.136875 1.890625-7.7968754L22 13l-4-1-1-4 4.630859-4.6308594c-.665-.2115-1.352156-.3320625-2.042968-.359375zM7 21c1.105 0 2 .895 2 2s-.895 2-2 2-2-.895-2-2 .895-2 2-2z"/></svg>