<svg xmlns="http://www.w3.org/2000/svg"><path d="M11 0v3h2V0h-2zM4.2226562 2.8085938 2.8085938 4.2226562 4.9296875 6.34375 6.34375 4.9296875 4.2226562 2.8085938zm15.5546878 0L17.65625 4.9296875 19.070312 6.34375l2.121094-2.1210938-1.414062-1.4140624zM12 5c-3.8541486 0-7 3.1458514-7 7 0 3.854149 3.1458514 7 7 7 3.854149 0 7-3.145851 7-7 0-3.8541486-3.145851-7-7-7zm0 2c2.773268 0 5 2.2267316 5 5 0 2.773268-2.226732 5-5 5-2.7732684 0-5-2.226732-5-5 0-2.7732684 2.2267316-5 5-5zM0 11v2h3v-2H0zm21 0v2h3v-2h-3zM4.9296875 17.65625l-2.1210937 2.121094 1.4140624 1.414062L6.34375 19.070312 4.9296875 17.65625zm14.1406245 0-1.414062 1.414062 2.121094 2.121094 1.414062-1.414062-2.121094-2.121094zM11 21v3h2v-3h-2z"/></svg>